<svg xmlns="http://www.w3.org/2000/svg" viewBox="0 0 120 120" fill="none">
  
  <path d="M60 18L28 34V60C28 78 41 93 60 98C79 93 92 78 92 60V34L60 18Z" stroke="white" stroke-width="1.5" fill="none" opacity="0.3"></path>
  <circle cx="60" cy="30" r="4" fill="white"></circle>
  <circle cx="45" cy="42" r="3.5" fill="white" opacity="0.8"></circle>
  <circle cx="60" cy="42" r="3.5" fill="white"></circle>
  <circle cx="75" cy="42" r="3.5" fill="white" opacity="0.8"></circle>
  <circle cx="38" cy="55" r="3" fill="white" opacity="0.6"></circle>
  <circle cx="52" cy="55" r="3.5" fill="white" opacity="0.9"></circle>
  <circle cx="68" cy="55" r="3.5" fill="white" opacity="0.9"></circle>
  <circle cx="82" cy="55" r="3" fill="white" opacity="0.6"></circle>
  <circle cx="45" cy="68" r="3" fill="white" opacity="0.7"></circle>
  <circle cx="60" cy="68" r="4" fill="white"></circle>
  <circle cx="75" cy="68" r="3" fill="white" opacity="0.7"></circle>
  <circle cx="52" cy="80" r="2.5" fill="white" opacity="0.5"></circle>
  <circle cx="60" cy="80" r="3" fill="white" opacity="0.7"></circle>
  <circle cx="68" cy="80" r="2.5" fill="white" opacity="0.5"></circle>
  <circle cx="60" cy="90" r="2" fill="white" opacity="0.4"></circle>
  <line x1="60" y1="30" x2="45" y2="42" stroke="white" stroke-width="1" opacity="0.2"></line>
  <line x1="60" y1="30" x2="75" y2="42" stroke="white" stroke-width="1" opacity="0.2"></line>
  <line x1="60" y1="30" x2="60" y2="42" stroke="white" stroke-width="1" opacity="0.3"></line>
  <line x1="45" y1="42" x2="38" y2="55" stroke="white" stroke-width="1" opacity="0.15"></line>
  <line x1="45" y1="42" x2="52" y2="55" stroke="white" stroke-width="1" opacity="0.2"></line>
  <line x1="60" y1="42" x2="52" y2="55" stroke="white" stroke-width="1" opacity="0.25"></line>
  <line x1="60" y1="42" x2="68" y2="55" stroke="white" stroke-width="1" opacity="0.25"></line>
  <line x1="75" y1="42" x2="68" y2="55" stroke="white" stroke-width="1" opacity="0.2"></line>
  <line x1="75" y1="42" x2="82" y2="55" stroke="white" stroke-width="1" opacity="0.15"></line>
  <line x1="52" y1="55" x2="45" y2="68" stroke="white" stroke-width="1" opacity="0.2"></line>
  <line x1="52" y1="55" x2="60" y2="68" stroke="white" stroke-width="1" opacity="0.25"></line>
  <line x1="68" y1="55" x2="60" y2="68" stroke="white" stroke-width="1" opacity="0.25"></line>
  <line x1="68" y1="55" x2="75" y2="68" stroke="white" stroke-width="1" opacity="0.2"></line>
  <line x1="45" y1="68" x2="52" y2="80" stroke="white" stroke-width="1" opacity="0.15"></line>
  <line x1="60" y1="68" x2="60" y2="80" stroke="white" stroke-width="1" opacity="0.2"></line>
  <line x1="75" y1="68" x2="68" y2="80" stroke="white" stroke-width="1" opacity="0.15"></line>
  <line x1="60" y1="80" x2="60" y2="90" stroke="white" stroke-width="1" opacity="0.1"></line>
</svg>